# xmcd
# 
# Track frame offsets:
#     150
#     14343
#     27733
#     47695
#     69843
#     93111
#     104775
#     120694
# 
# Disc length: 2235
# 
# Revision: 0
# Processed by: cddbd v1.5.2PL0 Copyright (c) Steve Scherf et al.
# Submitted via: fre:ac v1.0.17
# 
DISCID=6608b908
DTITLE=アルカラ - CAO
DYEAR=2014
DGENRE=Rock
TTITLE0=カラ騒ぎの彼女
TTITLE1=アブノーマルが足りない
TTITLE2=嘘つきライアー
TTITLE3=む・つ・ご・と
TTITLE4=愚痴ばっかりのローレロレロ
TTITLE5=ガイコツマン
TTITLE6=どうでもいいウタ
TTITLE7=ドナドナドーナツ
EXTD=
EXTT0=
EXTT1=
EXTT2=
EXTT3=
EXTT4=
EXTT5=
EXTT6=
EXTT7=
PLAYORDER=
